<svg xmlns="http://www.w3.org/2000/svg" version="1.1" xmlns:xlink="http://www.w3.org/1999/xlink" width="512" height="512" x="0" y="0" viewBox="0 0 512.029 512.029" style="enable-background:new 0 0 512 512" xml:space="preserve"><g><path d="M319 422.514h143v74.5c0 8.28-6.72 15-15 15H319zM502.58 91.014l-38.36 301.5H319v-75.5c0-15.57-7.95-29.31-20-37.39v-23.14c0-24.81-20.19-45-45-45h-7.29l-17.1-120.47zM511.88 17.905l-5.48 43.11H225.6l-5.48-43.11c-1.3-8.68 6.1-17.1 14.88-16.89h262c8.78-.211 16.18 8.209 14.88 16.89zM155.996 23.514h-8.5v-8.5c0-8.284-6.716-15-15-15s-15 6.716-15 15v8.5h-8.5c-8.284 0-15 6.716-15 15s6.716 15 15 15h8.5v8.5c0 8.284 6.716 15 15 15s15-6.716 15-15v-8.5h8.5c8.284 0 15-6.716 15-15s-6.716-15-15-15z" fill="#751e1b" opacity="1" data-original="#000000"></path><circle cx="29.996" cy="38.514" r="15" fill="#751e1b" opacity="1" data-original="#000000"></circle><circle cx="74.996" cy="118.014" r="15" fill="#751e1b" opacity="1" data-original="#000000"></circle><path d="M171.5 182.635c-9.92-7.27-19.79-13-27-16.84-6.45-3.43-10.78-5.35-11.15-5.51-8.24-3.961-18.843 1.213-20.62 10.19-.47 1.75-6.09 21.21-28.8 41.01h117.06c-6.89-9.861-16.73-19.501-29.49-28.85zM269 256.484v35.53H20v-35.53c0-8.28 6.72-15 15-15h219c8.28 0 15 6.72 15 15zM80 402.014h129v30H80z" fill="#751e1b" opacity="1" data-original="#000000"></path><path d="M274 322.014H15c-8.28 0-15 6.72-15 15v160c0 8.28 6.72 15 15 15h274v-175c0-8.28-6.72-15-15-15zm-35 125c0 8.28-6.72 15-15 15H65c-8.28 0-15-6.72-15-15v-60c0-8.28 6.72-15 15-15h159c8.28 0 15 6.72 15 15z" fill="#751e1b" opacity="1" data-original="#000000"></path></g></svg>