<svg width="324" height="216" viewBox="0 0 324 216" fill="none" xmlns="http://www.w3.org/2000/svg">
<path d="M161.683 143.597C131.405 143.597 106.772 118.965 106.772 88.6889C106.772 58.4113 131.405 33.7788 161.683 33.7788C191.958 33.7788 216.591 58.4113 216.591 88.6889C216.591 118.967 191.96 143.597 161.683 143.597ZM161.683 36.6014C132.96 36.6014 109.595 59.9666 109.595 88.6889C109.595 117.409 132.96 140.775 161.683 140.775C190.403 140.775 213.768 117.408 213.768 88.6889C213.77 59.9684 190.403 36.6014 161.683 36.6014Z" fill="url(#paint0_linear_116_244)"/>
<path d="M161.682 149.969C127.893 149.969 100.402 122.48 100.402 88.689C100.402 54.8996 127.893 27.4092 161.682 27.4092C195.472 27.4092 222.962 54.8996 222.962 88.689C222.962 122.48 195.473 149.969 161.682 149.969ZM161.682 32.1122C130.486 32.1122 105.105 57.4924 105.105 88.689C105.105 119.884 130.486 145.266 161.682 145.266C192.877 145.266 218.259 119.886 218.259 88.689C218.259 57.4924 192.879 32.1122 161.682 32.1122Z" fill="url(#paint1_linear_116_244)"/>
<path d="M190.846 11.2709L186.276 20.9493C176.682 17.8068 165.019 17.1122 161.678 16.9797C158.34 17.1122 146.677 17.8068 137.081 20.9493L132.511 11.2709C143.327 16.2745 146.074 6.25675 146.074 6.25675C157.21 12.5594 161.678 3.03125 161.678 3.03125C161.678 3.03125 166.146 12.5594 177.283 6.25675C177.283 6.25675 180.029 16.2762 190.846 11.2709Z" fill="url(#paint2_linear_116_244)"/>
<path d="M185.872 21.7978L184.066 25.6349C184.066 25.6349 172.873 22.4093 161.68 22.4093C150.487 22.4093 139.294 25.6349 139.294 25.6349L137.487 21.7978C146.902 18.7508 158.33 18.0544 161.68 17.9219C165.027 18.0544 176.455 18.749 185.872 21.7978Z" fill="url(#paint3_linear_116_244)"/>
<path d="M147.096 4.76675C147.096 5.49139 146.51 6.07818 145.785 6.07818C145.06 6.07818 144.474 5.49139 144.474 4.76675C144.474 4.04211 145.06 3.45532 145.785 3.45532C146.51 3.45532 147.096 4.04211 147.096 4.76675Z" fill="url(#paint4_linear_116_244)"/>
<path d="M161.679 2.62286C162.403 2.62286 162.99 2.03571 162.99 1.31143C162.99 0.587152 162.403 0 161.679 0C160.954 0 160.367 0.587152 160.367 1.31143C160.367 2.03571 160.954 2.62286 161.679 2.62286Z" fill="url(#paint5_linear_116_244)"/>
<path d="M132.935 9.99844C132.935 10.7231 132.349 11.3099 131.624 11.3099C130.899 11.3099 130.312 10.7231 130.312 9.99844C130.312 9.2738 130.899 8.68701 131.624 8.68701C132.349 8.68878 132.935 9.27557 132.935 9.99844Z" fill="url(#paint6_linear_116_244)"/>
<path d="M177.695 6.07818C178.419 6.07818 179.007 5.49103 179.007 4.76675C179.007 4.04247 178.419 3.45532 177.695 3.45532C176.971 3.45532 176.384 4.04247 176.384 4.76675C176.384 5.49103 176.971 6.07818 177.695 6.07818Z" fill="url(#paint7_linear_116_244)"/>
<path d="M190.544 9.99844C190.544 10.7231 191.131 11.3099 191.855 11.3099C192.58 11.3099 193.167 10.7231 193.167 9.99844C193.167 9.2738 192.58 8.68701 191.855 8.68701C191.131 8.68878 190.544 9.27557 190.544 9.99844Z" fill="url(#paint8_linear_116_244)"/>
<path d="M40.9646 129.393C39.1301 130.54 36.9526 130.693 35.0703 129.974C35.2382 127.972 36.3234 126.072 38.1651 124.919C40.0067 123.767 42.1894 123.62 44.0647 124.345C43.8879 126.353 42.7974 128.244 40.9646 129.393Z" fill="url(#paint9_linear_116_244)"/>
<path d="M40.9646 129.393C39.1301 130.54 36.9526 130.693 35.0703 129.974C35.2382 127.972 36.3234 126.072 38.1651 124.919C40.0067 123.767 42.1894 123.62 44.0647 124.345C43.8879 126.353 42.7974 128.244 40.9646 129.393Z" fill="url(#paint10_linear_116_244)"/>
<path d="M283.295 129.393C285.13 130.54 287.307 130.693 289.19 129.974C289.022 127.972 287.937 126.072 286.095 124.919C284.253 123.767 282.071 123.62 280.195 124.345C280.372 126.353 281.463 128.244 283.295 129.393Z" fill="url(#paint11_linear_116_244)"/>
<path d="M56.6929 151.052C53.4568 151.052 50.2613 149.744 47.6968 147.213C42.9884 142.561 42.2337 135.52 45.7774 129.277C51.67 118.897 63.0556 118.988 71.7301 123.685C75.1978 125.564 81.1115 129.35 86.8291 133.01C92.9727 136.943 99.3248 141.01 102.582 142.676C106.235 144.546 110.693 144.709 113.183 143.063C114.806 141.992 115.544 140.239 115.378 137.853C115.131 134.29 112.793 133.487 111.799 133.309C110.113 133.003 107.95 133.696 107.084 135.607C106.423 137.065 106.979 138.495 107.84 139.097C108.432 139.514 109.012 139.454 109.565 138.913C110.122 138.369 111.016 138.381 111.561 138.94C112.105 139.497 112.093 140.391 111.534 140.935C110.011 142.42 107.925 142.605 106.219 141.409C104.387 140.122 103.211 137.316 104.514 134.444C105.825 131.552 109.028 129.94 112.299 130.534C114.943 131.01 117.879 133.132 118.194 137.659C118.496 141.989 116.481 144.269 114.74 145.421C111.349 147.66 105.946 147.568 101.297 145.191C97.9197 143.463 91.5075 139.361 85.3092 135.391C79.634 131.759 73.7644 128.001 70.3869 126.172C59.3264 120.177 51.5392 124.854 48.2341 130.675C46.0355 134.55 45.0952 140.679 49.6834 145.211C53.0132 148.502 57.688 149.154 61.5869 146.874C65.2579 144.73 65.2084 141.582 63.9359 139.352C62.9161 137.561 60.9454 136.213 59.4218 137.063C58.7379 137.441 57.8807 137.197 57.5024 136.517C57.1224 135.835 57.3681 134.976 58.0486 134.597C60.834 133.049 64.4148 134.495 66.3872 137.954C68.3844 141.458 68.114 146.328 63.0097 149.309C61.0001 150.478 58.8368 151.052 56.6929 151.052Z" fill="url(#paint12_linear_116_244)"/>
<path d="M60.358 123.433C60.3333 123.433 60.3068 123.431 60.2803 123.431L58.9105 123.36C51.1551 122.973 39.4336 122.39 39.4336 113.652C39.4336 111.024 40.6708 108.791 42.7439 107.681C44.4389 106.775 46.4361 106.785 47.8288 107.713C49.271 108.676 50.0399 110.207 49.8861 111.807C49.7482 113.236 48.8893 114.412 47.5902 114.954C46.8709 115.251 46.0437 114.914 45.745 114.194C45.4463 113.475 45.7857 112.648 46.505 112.349C46.954 112.164 47.0565 111.759 47.0777 111.534C47.1307 110.987 46.8267 110.435 46.2646 110.06C45.7433 109.712 44.8419 109.758 44.0766 110.168C42.9207 110.787 42.2579 112.056 42.2579 113.65C42.2579 119.239 50.2025 120.099 59.0519 120.539L60.434 120.61C61.2117 120.653 61.8091 121.317 61.7666 122.095C61.7242 122.849 61.1021 123.433 60.358 123.433Z" fill="url(#paint13_linear_116_244)"/>
<path d="M267.566 151.052C265.421 151.052 263.257 150.478 261.25 149.304C256.145 146.324 255.875 141.453 257.872 137.949C259.846 134.488 263.427 133.044 266.211 134.592C266.891 134.97 267.137 135.829 266.757 136.512C266.379 137.192 265.518 137.436 264.838 137.058C263.312 136.208 261.343 137.554 260.324 139.347C259.053 141.577 259.002 144.725 262.672 146.869C266.575 149.147 271.246 148.495 274.578 145.206C279.164 140.674 278.226 134.544 276.027 130.67C272.722 124.848 264.935 120.174 253.874 126.167C250.497 127.996 244.627 131.752 238.952 135.386C232.752 139.355 226.341 143.458 222.964 145.186C218.314 147.565 212.913 147.657 209.521 145.416C207.78 144.265 205.765 141.984 206.067 137.653C206.382 133.127 209.318 131.004 211.962 130.529C215.235 129.939 218.434 131.547 219.747 134.438C221.05 137.31 219.874 140.117 218.042 141.404C216.334 142.602 214.249 142.415 212.727 140.93C212.169 140.386 212.158 139.493 212.702 138.935C213.247 138.376 214.141 138.367 214.698 138.908C215.251 139.449 215.831 139.509 216.421 139.092C217.282 138.489 217.838 137.06 217.177 135.601C216.311 133.693 214.148 132.998 212.462 133.304C211.469 133.482 209.13 134.285 208.883 137.848C208.717 140.234 209.456 141.987 211.078 143.058C213.57 144.704 218.028 144.539 221.681 142.671C224.938 141.004 231.29 136.938 237.434 133.005C243.151 129.345 249.065 125.561 252.533 123.68C261.205 118.984 272.591 118.891 278.486 129.272C282.029 135.515 281.275 142.556 276.566 147.208C273.996 149.746 270.801 151.052 267.566 151.052Z" fill="url(#paint14_linear_116_244)"/>
<path d="M263.901 123.433C263.157 123.433 262.535 122.851 262.492 122.098C262.45 121.321 263.047 120.656 263.825 120.614L265.207 120.543C274.057 120.103 282.001 119.242 282.001 113.654C282.001 112.059 281.338 110.79 280.181 110.172C279.412 109.76 278.514 109.716 277.993 110.064C277.431 110.439 277.127 110.99 277.18 111.538C277.201 111.762 277.305 112.165 277.752 112.353C278.472 112.651 278.811 113.479 278.512 114.198C278.212 114.917 277.386 115.257 276.667 114.958C275.368 114.415 274.509 113.24 274.371 111.81C274.216 110.209 274.984 108.678 276.428 107.717C277.819 106.789 279.817 106.777 281.513 107.685C283.586 108.795 284.824 111.027 284.824 113.655C284.824 122.393 273.102 122.977 265.347 123.364L263.977 123.434C263.952 123.431 263.927 123.433 263.901 123.433Z" fill="url(#paint15_linear_116_244)"/>
<path d="M323 154H2V157H323V154Z" fill="url(#paint16_linear_116_244)"/>
<path d="M323 213H2V216H323V213Z" fill="url(#paint17_linear_116_244)"/>
<path d="M162.176 52.0946C159.713 52.0946 155.087 52.2838 148.74 52.2838C143.293 52.2838 137.278 52.1892 134 52V53.9423C140.12 54.2261 141.256 55.2209 141.256 62.288V71.3191C141.256 71.3191 154.957 59.5577 157.681 57.4743C160.744 55.1311 163.502 52.1138 163.502 52.1138C163.067 52.1042 162.631 52.0946 162.176 52.0946Z" fill="url(#paint18_linear_116_244)"/>
<path d="M168.598 84.5987V84.4095C182.145 81.8988 187.98 74.2257 187.98 67.3582C187.98 59.2402 181.443 53.3098 168.333 52.2773C168.181 55.2329 167.452 60.6423 163.189 64.7914C156.53 71.2902 152.058 72.9383 151.831 77.9492C151.84 78.2146 151.859 78.4511 151.906 78.6787V78.7164C152.162 80.1946 152.996 81.1413 153.735 81.5397C154.426 81.9189 155.449 82.1177 156.7 82.165C156.7 82.165 156.766 82.165 157.382 82.1746C157.496 82.165 157.618 82.165 157.732 82.165C157.884 82.165 158.055 82.1553 158.244 82.1457C158.253 82.1361 158.253 82.1361 158.253 82.1361C158.481 82.1265 158.727 82.0984 159.021 82.0696C162.867 81.6431 163.378 78.0719 163.378 78.0719C161.522 79.5878 156.065 79.9188 155.554 76.7548C155.052 73.5812 156.984 72.5295 163.795 66.5622C170.606 60.5942 170.351 52.5234 170.351 52.5234C174.736 58.558 173.031 64.3265 172.899 66.6095C172.767 68.8925 176.366 70.6737 176.366 72.0092C176.366 72.6626 173.912 73.5435 173.912 73.5435V75.5235L172.538 76.0542V77.3993C170.094 78.2426 171.022 81.5197 170.35 82.278C169.677 83.0355 163.292 81.6904 163.292 81.6904C160.858 82.7229 159.731 84.7782 159.276 85.8869H160.783C172.292 85.8869 176.887 91.6185 176.887 101.47C176.887 112.373 172.861 118.483 163.388 118.483C157.837 118.483 156.7 117.205 156.7 110.431V83.2151C155.364 84.1907 153.384 85.7346 151.707 87.4685C149.055 90.2156 143.674 95.9087 141.258 102.521V110.431C141.258 117.488 140.169 118.483 134.002 118.767V120.709C137.28 120.52 143.201 120.425 148.931 120.425C157.173 120.425 163.198 120.709 166.229 120.709C182.854 120.709 193 114.126 193 101.896C193.001 94.0338 186.749 85.9823 168.598 84.5987Z" fill="url(#paint19_linear_116_244)"/>
<path d="M166.459 52.522C166.459 52.522 167.063 59.2051 158.321 66.1423C149.578 73.0795 137.587 83.2056 136.436 92.2928C136.436 92.2928 133.791 82.7455 140.578 75.6135C147.364 68.4814 164.159 56.8074 166.459 52.522Z" fill="url(#paint20_linear_116_244)"/>
<path d="M140.066 100.996C135.699 92.7646 145.75 82.3155 149.397 78.915C149.605 80.6962 150.571 82.2498 151.965 83.235C139.62 93.721 140.066 100.996 140.066 100.996Z" fill="url(#paint21_linear_116_244)"/>
<path d="M2.166 200V170.759H9.7831C11.0346 170.759 12.2138 170.855 13.3209 171.048C14.452 171.24 15.4508 171.613 16.3172 172.167C17.1836 172.696 17.8575 173.467 18.3388 174.477C18.8442 175.464 19.0969 176.776 19.0969 178.412C19.0969 179.591 18.9164 180.59 18.5554 181.408C18.2185 182.203 17.7251 182.84 17.0753 183.322C16.4496 183.803 15.6915 184.128 14.801 184.296C15.9321 184.441 16.8828 184.814 17.6529 185.416C18.423 185.993 19.0006 186.775 19.3857 187.762C19.7948 188.749 19.9994 189.94 19.9994 191.336C19.9994 192.852 19.7948 194.164 19.3857 195.271C19.0006 196.354 18.4351 197.244 17.689 197.942C16.9429 198.64 16.0164 199.158 14.9093 199.495C13.8263 199.832 12.5748 200 11.1549 200H2.166ZM8.6279 195.488H9.9997C11.4196 195.488 12.3943 195.127 12.9238 194.405C13.4773 193.683 13.7541 192.624 13.7541 191.228C13.7541 190.121 13.6338 189.242 13.3931 188.592C13.1524 187.943 12.7553 187.473 12.2018 187.184C11.6483 186.872 10.9022 186.715 9.9636 186.715H8.6279V195.488ZM8.6279 182.455H9.8914C10.8781 182.455 11.6242 182.311 12.1296 182.022C12.635 181.709 12.9719 181.264 13.1404 180.686C13.3329 180.109 13.4292 179.411 13.4292 178.593C13.4292 177.823 13.2848 177.185 12.996 176.679C12.7313 176.15 12.3221 175.753 11.7686 175.488C11.2391 175.223 10.5653 175.091 9.747 175.091H8.6279V182.455ZM23.3889 200V170.759H36.5293V175.163H29.8508V182.419H34.9409V186.896H29.8508V195.632H36.6015V200H23.3889ZM38.1272 200L43.6505 170.759H51.0149L56.466 200H50.5095L49.5348 193.827H45.2389L44.2281 200H38.1272ZM45.8165 189.964H48.9211L47.3688 178.557L45.8165 189.964ZM67.5837 200.433C65.3455 200.433 63.5886 200.072 62.3131 199.35C61.0616 198.604 60.1832 197.533 59.6778 196.137C59.1724 194.717 58.9197 192.985 58.9197 190.939V170.759H65.3094V191.914C65.3094 192.515 65.3575 193.117 65.4538 193.719C65.5501 194.32 65.7546 194.814 66.0675 195.199C66.4044 195.584 66.9098 195.776 67.5837 195.776C68.2816 195.776 68.787 195.584 69.0999 195.199C69.4128 194.814 69.6053 194.32 69.6775 193.719C69.7738 193.117 69.8219 192.515 69.8219 191.914V170.759H76.2477V190.939C76.2477 192.985 75.983 194.717 75.4535 196.137C74.9481 197.533 74.0697 198.604 72.8182 199.35C71.5667 200.072 69.8219 200.433 67.5837 200.433ZM82.9945 200V175.56H78.5903V170.759H93.8606V175.56H89.4925V200H82.9945ZM100.117 200V188.051L94.5577 170.759H100.659L103.438 180.001L105.929 170.759H111.777L106.326 188.051V200H100.117ZM123.475 200V170.759H131.525C133.498 170.759 135.207 170.976 136.651 171.409C138.095 171.842 139.214 172.624 140.008 173.755C140.827 174.862 141.236 176.439 141.236 178.484C141.236 179.688 141.14 180.759 140.947 181.697C140.755 182.636 140.394 183.454 139.864 184.152C139.359 184.826 138.625 185.392 137.662 185.849L141.669 200H134.991L131.778 186.896H129.937V200H123.475ZM129.937 183.177H131.742C132.656 183.177 133.366 183.021 133.871 182.708C134.377 182.371 134.726 181.902 134.918 181.3C135.135 180.674 135.243 179.928 135.243 179.062C135.243 177.811 135.015 176.836 134.557 176.138C134.1 175.44 133.258 175.091 132.03 175.091H129.937V183.177ZM153.214 200.433C151.024 200.433 149.291 200.048 148.015 199.278C146.74 198.508 145.825 197.401 145.272 195.957C144.718 194.513 144.441 192.792 144.441 190.794V179.928C144.441 177.907 144.718 176.186 145.272 174.766C145.825 173.346 146.74 172.263 148.015 171.517C149.291 170.747 151.024 170.362 153.214 170.362C155.428 170.362 157.173 170.747 158.448 171.517C159.748 172.263 160.674 173.346 161.228 174.766C161.781 176.186 162.058 177.907 162.058 179.928V190.794C162.058 192.792 161.781 194.513 161.228 195.957C160.674 197.401 159.748 198.508 158.448 199.278C157.173 200.048 155.428 200.433 153.214 200.433ZM153.214 195.849C153.888 195.849 154.381 195.68 154.694 195.343C155.007 195.006 155.211 194.573 155.308 194.044C155.404 193.514 155.452 192.973 155.452 192.419V178.34C155.452 177.762 155.404 177.221 155.308 176.715C155.211 176.186 155.007 175.753 154.694 175.416C154.381 175.079 153.888 174.91 153.214 174.91C152.588 174.91 152.119 175.079 151.806 175.416C151.493 175.753 151.288 176.186 151.192 176.715C151.096 177.221 151.048 177.762 151.048 178.34V192.419C151.048 192.973 151.084 193.514 151.156 194.044C151.252 194.573 151.445 195.006 151.734 195.343C152.047 195.68 152.54 195.849 153.214 195.849ZM169.074 200V188.051L163.514 170.759H169.615L172.395 180.001L174.886 170.759H180.734L175.283 188.051V200H169.074ZM180.2 200L185.724 170.759H193.088L198.539 200H192.583L191.608 193.827H187.312L186.301 200H180.2ZM187.89 189.964H190.994L189.442 178.557L187.89 189.964ZM201.492 200V170.759H207.953V195.632H214.668V200H201.492ZM226.842 200V170.759H233.304V182.6H237.852V170.759H244.314V200H237.852V187.221H233.304V200H226.842ZM257.142 200.433C254.952 200.433 253.219 200.048 251.944 199.278C250.668 198.508 249.754 197.401 249.2 195.957C248.647 194.513 248.37 192.792 248.37 190.794V179.928C248.37 177.907 248.647 176.186 249.2 174.766C249.754 173.346 250.668 172.263 251.944 171.517C253.219 170.747 254.952 170.362 257.142 170.362C259.356 170.362 261.101 170.747 262.377 171.517C263.676 172.263 264.603 173.346 265.156 174.766C265.71 176.186 265.987 177.907 265.987 179.928V190.794C265.987 192.792 265.71 194.513 265.156 195.957C264.603 197.401 263.676 198.508 262.377 199.278C261.101 200.048 259.356 200.433 257.142 200.433ZM257.142 195.849C257.816 195.849 258.309 195.68 258.622 195.343C258.935 195.006 259.14 194.573 259.236 194.044C259.332 193.514 259.38 192.973 259.38 192.419V178.34C259.38 177.762 259.332 177.221 259.236 176.715C259.14 176.186 258.935 175.753 258.622 175.416C258.309 175.079 257.816 174.91 257.142 174.91C256.517 174.91 256.047 175.079 255.734 175.416C255.421 175.753 255.217 176.186 255.121 176.715C255.024 177.221 254.976 177.762 254.976 178.34V192.419C254.976 192.973 255.012 193.514 255.085 194.044C255.181 194.573 255.373 195.006 255.662 195.343C255.975 195.68 256.468 195.849 257.142 195.849ZM278.367 200.433C276.129 200.433 274.372 200.072 273.096 199.35C271.845 198.604 270.966 197.533 270.461 196.137C269.956 194.717 269.703 192.985 269.703 190.939V170.759H276.093V191.914C276.093 192.515 276.141 193.117 276.237 193.719C276.333 194.32 276.538 194.814 276.851 195.199C277.188 195.584 277.693 195.776 278.367 195.776C279.065 195.776 279.57 195.584 279.883 195.199C280.196 194.814 280.388 194.32 280.461 193.719C280.557 193.117 280.605 192.515 280.605 191.914V170.759H287.031V190.939C287.031 192.985 286.766 194.717 286.237 196.137C285.731 197.533 284.853 198.604 283.601 199.35C282.35 200.072 280.605 200.433 278.367 200.433ZM298.904 200.433C297.075 200.433 295.546 200.108 294.319 199.459C293.092 198.809 292.165 197.81 291.539 196.462C290.914 195.09 290.565 193.322 290.492 191.156L296.016 190.325C296.04 191.577 296.148 192.587 296.341 193.358C296.557 194.128 296.846 194.681 297.207 195.018C297.592 195.355 298.049 195.524 298.579 195.524C299.253 195.524 299.686 195.295 299.878 194.838C300.095 194.38 300.203 193.899 300.203 193.394C300.203 192.19 299.915 191.18 299.337 190.361C298.759 189.519 297.977 188.677 296.99 187.834L294.463 185.632C293.356 184.694 292.418 183.635 291.648 182.455C290.902 181.252 290.529 179.772 290.529 178.015C290.529 175.536 291.263 173.647 292.731 172.347C294.199 171.024 296.196 170.362 298.723 170.362C300.288 170.362 301.539 170.627 302.478 171.156C303.44 171.686 304.162 172.384 304.644 173.25C305.149 174.092 305.486 174.995 305.654 175.957C305.847 176.896 305.955 177.798 305.979 178.665L300.42 179.351C300.396 178.484 300.336 177.738 300.239 177.113C300.167 176.463 299.999 175.969 299.734 175.633C299.469 175.271 299.06 175.091 298.507 175.091C297.905 175.091 297.46 175.344 297.171 175.849C296.906 176.355 296.774 176.86 296.774 177.365C296.774 178.448 297.027 179.339 297.532 180.037C298.061 180.711 298.747 181.421 299.59 182.167L302.008 184.296C303.284 185.379 304.355 186.607 305.221 187.979C306.112 189.35 306.557 191.047 306.557 193.069C306.557 194.441 306.244 195.692 305.618 196.823C304.993 197.93 304.102 198.809 302.947 199.459C301.816 200.108 300.468 200.433 298.904 200.433ZM309.686 200V170.759H322.826V175.163H316.148V182.419H321.238V186.896H316.148V195.632H322.898V200H309.686Z" fill="url(#paint22_linear_116_244)"/>
<defs>
<linearGradient id="paint0_linear_116_244" x1="106.774" y1="88.6889" x2="216.591" y2="88.6889" gradientUnits="userSpaceOnUse">
<stop stop-color="#ECC440"/>
<stop offset="0.3198" stop-color="#FFFA8A"/>
<stop offset="0.6802" stop-color="#DDAC17"/>
<stop offset="1" stop-color="#FFFF95"/>
</linearGradient>
<linearGradient id="paint1_linear_116_244" x1="100.403" y1="88.689" x2="222.962" y2="88.689" gradientUnits="userSpaceOnUse">
<stop stop-color="#ECC440"/>
<stop offset="0.3198" stop-color="#FFFA8A"/>
<stop offset="0.6802" stop-color="#DDAC17"/>
<stop offset="1" stop-color="#FFFF95"/>
</linearGradient>
<linearGradient id="paint2_linear_116_244" x1="132.51" y1="11.9913" x2="190.846" y2="11.9913" gradientUnits="userSpaceOnUse">
<stop stop-color="#ECC440"/>
<stop offset="0.3198" stop-color="#FFFA8A"/>
<stop offset="0.6802" stop-color="#DDAC17"/>
<stop offset="1" stop-color="#FFFF95"/>
</linearGradient>
<linearGradient id="paint3_linear_116_244" x1="137.487" y1="21.7784" x2="185.872" y2="21.7784" gradientUnits="userSpaceOnUse">
<stop stop-color="#ECC440"/>
<stop offset="0.3198" stop-color="#FFFA8A"/>
<stop offset="0.6802" stop-color="#DDAC17"/>
<stop offset="1" stop-color="#FFFF95"/>
</linearGradient>
<linearGradient id="paint4_linear_116_244" x1="144.475" y1="4.76675" x2="147.096" y2="4.76675" gradientUnits="userSpaceOnUse">
<stop stop-color="#ECC440"/>
<stop offset="0.3198" stop-color="#FFFA8A"/>
<stop offset="0.6802" stop-color="#DDAC17"/>
<stop offset="1" stop-color="#FFFF95"/>
</linearGradient>
<linearGradient id="paint5_linear_116_244" x1="160.368" y1="1.31143" x2="162.989" y2="1.31143" gradientUnits="userSpaceOnUse">
<stop stop-color="#ECC440"/>
<stop offset="0.3198" stop-color="#FFFA8A"/>
<stop offset="0.6802" stop-color="#DDAC17"/>
<stop offset="1" stop-color="#FFFF95"/>
</linearGradient>
<linearGradient id="paint6_linear_116_244" x1="130.314" y1="9.99915" x2="132.935" y2="9.99915" gradientUnits="userSpaceOnUse">
<stop stop-color="#ECC440"/>
<stop offset="0.3198" stop-color="#FFFA8A"/>
<stop offset="0.6802" stop-color="#DDAC17"/>
<stop offset="1" stop-color="#FFFF95"/>
</linearGradient>
<linearGradient id="paint7_linear_116_244" x1="176.384" y1="4.76675" x2="179.006" y2="4.76675" gradientUnits="userSpaceOnUse">
<stop stop-color="#ECC440"/>
<stop offset="0.3198" stop-color="#FFFA8A"/>
<stop offset="0.6802" stop-color="#DDAC17"/>
<stop offset="1" stop-color="#FFFF95"/>
</linearGradient>
<linearGradient id="paint8_linear_116_244" x1="190.545" y1="9.99915" x2="193.166" y2="9.99915" gradientUnits="userSpaceOnUse">
<stop stop-color="#ECC440"/>
<stop offset="0.3198" stop-color="#FFFA8A"/>
<stop offset="0.6802" stop-color="#DDAC17"/>
<stop offset="1" stop-color="#FFFF95"/>
</linearGradient>
<linearGradient id="paint9_linear_116_244" x1="35.0698" y1="127.156" x2="44.0636" y2="127.156" gradientUnits="userSpaceOnUse">
<stop stop-color="#ECC440"/>
<stop offset="0.3198" stop-color="#FFFA8A"/>
<stop offset="0.6802" stop-color="#DDAC17"/>
<stop offset="1" stop-color="#FFFF95"/>
</linearGradient>
<linearGradient id="paint10_linear_116_244" x1="35.0698" y1="127.156" x2="44.0636" y2="127.156" gradientUnits="userSpaceOnUse">
<stop stop-color="#ECC440"/>
<stop offset="0.3198" stop-color="#FFFA8A"/>
<stop offset="0.6802" stop-color="#DDAC17"/>
<stop offset="1" stop-color="#FFFF95"/>
</linearGradient>
<linearGradient id="paint11_linear_116_244" x1="280.196" y1="127.156" x2="289.19" y2="127.156" gradientUnits="userSpaceOnUse">
<stop stop-color="#ECC440"/>
<stop offset="0.3198" stop-color="#FFFA8A"/>
<stop offset="0.6802" stop-color="#DDAC17"/>
<stop offset="1" stop-color="#FFFF95"/>
</linearGradient>
<linearGradient id="paint12_linear_116_244" x1="43.5609" y1="135.843" x2="118.222" y2="135.843" gradientUnits="userSpaceOnUse">
<stop stop-color="#ECC440"/>
<stop offset="0.3198" stop-color="#FFFA8A"/>
<stop offset="0.6802" stop-color="#DDAC17"/>
<stop offset="1" stop-color="#FFFF95"/>
</linearGradient>
<linearGradient id="paint13_linear_116_244" x1="39.4347" y1="115.22" x2="61.7677" y2="115.22" gradientUnits="userSpaceOnUse">
<stop stop-color="#ECC440"/>
<stop offset="0.3198" stop-color="#FFFA8A"/>
<stop offset="0.6802" stop-color="#DDAC17"/>
<stop offset="1" stop-color="#FFFF95"/>
</linearGradient>
<linearGradient id="paint14_linear_116_244" x1="206.035" y1="135.844" x2="280.697" y2="135.844" gradientUnits="userSpaceOnUse">
<stop stop-color="#ECC440"/>
<stop offset="0.3198" stop-color="#FFFA8A"/>
<stop offset="0.6802" stop-color="#DDAC17"/>
<stop offset="1" stop-color="#FFFF95"/>
</linearGradient>
<linearGradient id="paint15_linear_116_244" x1="262.491" y1="115.22" x2="284.824" y2="115.22" gradientUnits="userSpaceOnUse">
<stop stop-color="#ECC440"/>
<stop offset="0.3198" stop-color="#FFFA8A"/>
<stop offset="0.6802" stop-color="#DDAC17"/>
<stop offset="1" stop-color="#FFFF95"/>
</linearGradient>
<linearGradient id="paint16_linear_116_244" x1="2.00018" y1="155.5" x2="323" y2="155.5" gradientUnits="userSpaceOnUse">
<stop stop-color="#ECC440"/>
<stop offset="0.3198" stop-color="#FFFA8A"/>
<stop offset="0.6802" stop-color="#DDAC17"/>
<stop offset="1" stop-color="#FFFF95"/>
</linearGradient>
<linearGradient id="paint17_linear_116_244" x1="2.00018" y1="214.501" x2="323" y2="214.501" gradientUnits="userSpaceOnUse">
<stop stop-color="#ECC440"/>
<stop offset="0.3198" stop-color="#FFFA8A"/>
<stop offset="0.6802" stop-color="#DDAC17"/>
<stop offset="1" stop-color="#FFFF95"/>
</linearGradient>
<linearGradient id="paint18_linear_116_244" x1="134" y1="61.6598" x2="163.503" y2="61.6598" gradientUnits="userSpaceOnUse">
<stop stop-color="#ECC440"/>
<stop offset="0.3198" stop-color="#FFFA8A"/>
<stop offset="0.6802" stop-color="#DDAC17"/>
<stop offset="1" stop-color="#FFFF95"/>
</linearGradient>
<linearGradient id="paint19_linear_116_244" x1="134.003" y1="86.4935" x2="193.001" y2="86.4935" gradientUnits="userSpaceOnUse">
<stop stop-color="#ECC440"/>
<stop offset="0.3198" stop-color="#FFFA8A"/>
<stop offset="0.6802" stop-color="#DDAC17"/>
<stop offset="1" stop-color="#FFFF95"/>
</linearGradient>
<linearGradient id="paint20_linear_116_244" x1="135.929" y1="72.4073" x2="166.468" y2="72.4073" gradientUnits="userSpaceOnUse">
<stop stop-color="#ECC440"/>
<stop offset="0.3198" stop-color="#FFFA8A"/>
<stop offset="0.6802" stop-color="#DDAC17"/>
<stop offset="1" stop-color="#FFFF95"/>
</linearGradient>
<linearGradient id="paint21_linear_116_244" x1="138.986" y1="89.9557" x2="151.964" y2="89.9557" gradientUnits="userSpaceOnUse">
<stop stop-color="#ECC440"/>
<stop offset="0.3198" stop-color="#FFFA8A"/>
<stop offset="0.6802" stop-color="#DDAC17"/>
<stop offset="1" stop-color="#FFFF95"/>
</linearGradient>
<linearGradient id="paint22_linear_116_244" x1="0" y1="184" x2="324" y2="184" gradientUnits="userSpaceOnUse">
<stop offset="0.0752233" stop-color="#ECC440"/>
<stop offset="0.333204" stop-color="#FFFA8A"/>
<stop offset="0.69" stop-color="#DDAC17"/>
<stop offset="0.92226" stop-color="#FFFA8A"/>
</linearGradient>
</defs>
</svg>
