<svg xmlns="http://www.w3.org/2000/svg" version="1.1" xmlns:xlink="http://www.w3.org/1999/xlink" width="512" height="512" x="0" y="0" viewBox="0 0 512 512" style="enable-background:new 0 0 512 512" xml:space="preserve"><g><path d="M495.922 324.25c-16.723 16.701-43.943 16.701-60.665.01l-34.923-34.923 60.665-60.665 34.923 34.912c16.701 16.734 16.701 43.954 0 60.666zm-45.604-106.259-15.428-15.428-76.277 45.043 31.039 31.05zm-46.112-46.111-76.277 45.054 19.646 19.646 76.287-45.054zm-87.302 34.028 76.277-45.065-19.646-19.636-76.288 45.043zm-30.684-30.694 76.277-45.043-19.657-19.657-76.266 45.065zm-30.672-30.673 76.266-45.065-19.646-19.636-76.287 45.043zm-30.694-30.694 76.277-45.043-19.646-19.657-76.289 45.043zm45.593-75.727-9.246-9.246c-8.361-8.35-19.344-12.526-30.327-12.526-10.994 0-21.977 4.175-30.338 12.526-14.565 14.597-16.421 37.178-5.556 53.804zm-54.915 229.241c25.235 0 49.574 3.711 72.49 10.994a76.21 76.21 0 0 0 3.97-24.264v-51.732L189.855 100.221c-8.092-8.102-13.259-18.028-15.557-28.461h-9.375c-14.273 0-25.871 11.609-25.871 25.871V254.09c0 8.48 1.403 16.636 3.97 24.264 22.892-7.282 47.243-10.993 72.51-10.993zm-66.254 24.857c13.238 22.883 37.966 38.332 66.254 38.332 28.277 0 53.005-15.45 66.232-38.332-20.941-6.462-43.177-9.742-66.232-9.742-23.088 0-45.324 3.279-66.254 9.742zm157.818-74.756v36.628c0 50.492-41.073 91.564-91.564 91.564-50.502 0-91.597-41.073-91.597-91.564v-59.586c-22.926 23.703-35.808 55.109-35.808 88.371V511.5h254.809V282.875c0-11.706-1.607-23.239-4.747-34.319zM101.549 61.457c7.326-13.195 17.338-23.39 29.96-30.489C118.886 23.88 108.874 13.695 101.549.5c-7.315 13.195-17.327 23.379-29.95 30.468 12.623 7.099 22.635 17.294 29.95 30.489zM67.55 196.85c-11.892-3.629-19.758-11.534-24.047-24.168a6.102 6.102 0 0 0-5.774-4.142h-.005a6.104 6.104 0 0 0-5.776 4.133c-4.312 12.642-12.187 20.55-24.074 24.178a6.101 6.101 0 0 0-.01 11.671c11.896 3.652 19.774 11.569 24.083 24.205a6.103 6.103 0 0 0 5.776 4.134h.005a6.104 6.104 0 0 0 5.774-4.142c4.287-12.629 12.156-20.544 24.056-24.196a6.104 6.104 0 0 0-.008-11.673zm371.123 194.199c-11.874-3.63-19.741-11.539-24.053-24.178a6.104 6.104 0 0 0-5.776-4.133h-.005a6.101 6.101 0 0 0-5.774 4.142c-4.288 12.634-12.154 20.539-24.046 24.168a6.101 6.101 0 0 0-.01 11.671c11.902 3.654 19.77 11.568 24.056 24.197a6.105 6.105 0 0 0 5.775 4.142h.005a6.104 6.104 0 0 0 5.776-4.133c4.31-12.634 12.181-20.552 24.063-24.207a6.101 6.101 0 0 0 4.308-5.839 6.1 6.1 0 0 0-4.319-5.83z" fill="#aa8656" opacity="1" data-original="#000000"></path></g></svg>