<svg width="150" height="151" viewBox="0 0 150 151" fill="none" xmlns="http://www.w3.org/2000/svg">
<path d="M74.8079 150.177C116.053 150.177 149.489 116.741 149.489 75.4963C149.489 34.2512 116.053 0.81543 74.8079 0.81543C33.5627 0.81543 0.126953 34.2512 0.126953 75.4963C0.126953 116.741 33.5627 150.177 74.8079 150.177Z" fill="#AC8856"/>
<path d="M74.8092 128.472C104.067 128.472 127.784 104.754 127.784 75.4967C127.784 46.2393 104.067 22.5215 74.8092 22.5215C45.5518 22.5215 21.834 46.2393 21.834 75.4967C21.834 104.754 45.5518 128.472 74.8092 128.472Z" stroke="white"/>
<path d="M74.8079 149.677C115.777 149.677 148.989 116.465 148.989 75.4963C148.989 34.5274 115.777 1.31543 74.8079 1.31543C33.8389 1.31543 0.626953 34.5274 0.626953 75.4963C0.626953 116.465 33.8389 149.677 74.8079 149.677Z" stroke="white"/>
<path d="M14.1798 60.8416L13.7475 62.6008L12.638 62.3281L13.0702 60.5689C13.137 60.2971 13.1472 60.0649 13.1006 59.8725C13.0509 59.6792 12.9551 59.5233 12.8133 59.4047C12.6715 59.286 12.4994 59.2018 12.2971 59.1521C12.0916 59.1016 11.8907 59.0942 11.6942 59.1297C11.4978 59.1652 11.3249 59.2551 11.1754 59.3994C11.026 59.5437 10.9179 59.7518 10.8511 60.0237L10.54 61.2897L16.3297 62.7124L15.9801 64.1349L9.07617 62.4384L9.73681 59.7498C9.86964 59.2093 10.0814 58.7703 10.3722 58.4327C10.6605 58.0913 11.0007 57.8598 11.3926 57.7382C11.7845 57.6166 12.2001 57.6098 12.6395 57.7178C13.0852 57.8273 13.4457 58.0248 13.7208 58.3103C13.9959 58.5958 14.1742 58.9547 14.2557 59.387C14.3379 59.8162 14.3126 60.301 14.1798 60.8416Z" fill="white"/>
<path d="M11.123 55.0561L12.0429 52.5695C12.2315 52.0596 12.4699 51.6496 12.758 51.3397C13.0473 51.0268 13.3783 50.8265 13.7509 50.7388C14.1235 50.651 14.5281 50.6879 14.9647 50.8494C15.3219 50.9815 15.6061 51.1561 15.8174 51.373C16.0267 51.5858 16.1763 51.8338 16.2659 52.1168C16.3536 52.3956 16.3937 52.7003 16.386 53.0307L16.454 53.5505L15.6544 55.7119L14.5795 55.3247L15.1741 53.7173C15.2633 53.4761 15.2945 53.2604 15.2678 53.07C15.241 52.8796 15.166 52.7165 15.0427 52.5806C14.9205 52.4417 14.7587 52.3349 14.5572 52.2604C14.3435 52.1813 14.1441 52.1528 13.959 52.1746C13.774 52.1964 13.6103 52.2729 13.468 52.4042C13.3257 52.5355 13.2094 52.7232 13.119 52.9675L12.7074 54.0804L18.299 56.1488L17.7908 57.5227L11.123 55.0561ZM19.1697 53.7949L15.6352 54.2159L16.1631 52.7608L19.6494 52.3012L19.7135 52.3249L19.1697 53.7949Z" fill="white"/>
<path d="M21.4537 46.3625L22.4772 46.8704L20.7953 50.2602L19.7717 49.7524L21.4537 46.3625ZM14.6394 46.6717L21.0079 49.8316L20.3569 51.1438L13.9883 47.9839L14.6394 46.6717ZM18.4833 45.4392L19.4805 45.934L18.0178 48.8821L17.0205 48.3873L18.4833 45.4392ZM16.1065 43.7148L17.1344 44.2249L15.4546 47.6103L14.4267 47.1003L16.1065 43.7148Z" fill="white"/>
<path d="M17.5195 41.4132L18.2002 40.3765L23.5657 41.715L20.2049 37.3235L20.8857 36.2868L25.4187 42.3359L24.8719 43.1685L17.5195 41.4132ZM17.1523 41.9724L17.8304 40.9398L22.2066 43.5447L23.8964 44.6542L23.095 45.8746L17.1523 41.9724ZM20.5748 36.7603L21.2555 35.7236L27.1982 39.6258L26.3942 40.8502L24.7045 39.7407L20.5748 36.7603Z" fill="white"/>
<path d="M23.5883 33.0723L29.0836 37.5828L28.1573 38.7113L22.6621 34.2008L23.5883 33.0723Z" fill="white"/>
<path d="M28.5402 27.7895L29.5664 26.751L32.9077 30.0525C33.2967 30.4369 33.5419 30.844 33.6435 31.2739C33.7473 31.7014 33.7223 32.1274 33.5683 32.5518C33.4166 32.974 33.1543 33.3737 32.7813 33.7512C32.4084 34.1286 32.0095 34.398 31.5846 34.5594C31.1621 34.7184 30.7353 34.7498 30.3042 34.6534C29.8755 34.5547 29.4666 34.3131 29.0776 33.9287L25.7363 30.6272L26.7659 29.5852L30.1072 32.8867C30.3341 33.111 30.5548 33.2581 30.7693 33.3282C30.9838 33.3983 31.191 33.3993 31.3908 33.3314C31.593 33.2611 31.7856 33.1333 31.9686 32.9481C32.1562 32.7582 32.2816 32.5641 32.3449 32.3658C32.4105 32.1651 32.4058 31.9592 32.3309 31.7478C32.2582 31.5342 32.1084 31.3153 31.8815 31.0911L28.5402 27.7895Z" fill="white"/>
<path d="M31.8765 24.821L32.8534 24.0568L37.5079 27.0427L35.73 21.8064L36.7069 21.0422L39.0645 28.2242L38.2799 28.8379L31.8765 24.821ZM31.3496 25.2331L32.3226 24.472L35.6345 28.3409L36.88 29.9331L35.7301 30.8326L31.3496 25.2331ZM36.2607 21.3912L37.2376 20.627L41.6181 26.2265L40.4643 27.1291L39.2188 25.5369L36.2607 21.3912Z" fill="white"/>
<path d="M48.435 20.4167C48.3769 20.3039 48.3073 20.2116 48.2263 20.1398C48.1467 20.0636 48.0427 20.0111 47.9142 19.9821C47.7843 19.9502 47.6189 19.9384 47.4181 19.9468C47.2173 19.9551 46.9672 19.9851 46.668 20.0369C46.3338 20.092 46.0081 20.1281 45.691 20.1452C45.3767 20.1607 45.0816 20.1426 44.8058 20.0907C44.5314 20.0344 44.2848 19.9327 44.0661 19.7854C43.8502 19.6367 43.6721 19.4264 43.5319 19.1544C43.3961 18.8911 43.3309 18.6226 43.3362 18.3488C43.3401 18.0722 43.4066 17.8034 43.5358 17.5427C43.6636 17.279 43.8476 17.0322 44.0879 16.802C44.331 16.5704 44.6233 16.3666 44.9647 16.1906C45.4305 15.9504 45.8803 15.8247 46.314 15.8134C46.7477 15.8022 47.1354 15.8935 47.477 16.0872C47.8215 16.2795 48.0908 16.5636 48.2847 16.9398L46.9915 17.6066C46.896 17.4215 46.7734 17.2796 46.6236 17.181C46.4753 17.078 46.3022 17.0263 46.1041 17.0259C45.909 17.0239 45.6943 17.0834 45.46 17.2042C45.2343 17.3206 45.0641 17.4523 44.9495 17.5993C44.8334 17.7435 44.7675 17.8928 44.752 18.0473C44.7349 18.1989 44.763 18.3456 44.8361 18.4874C44.8913 18.5944 44.9673 18.6779 45.0641 18.7379C45.1639 18.7963 45.2866 18.8355 45.4325 18.8556C45.5783 18.8756 45.7465 18.8786 45.9371 18.8646C46.1276 18.8505 46.342 18.8224 46.5802 18.7801C46.9782 18.7067 47.341 18.668 47.6685 18.6639C47.9989 18.6584 48.2942 18.6911 48.5542 18.7621C48.8142 18.8331 49.042 18.9482 49.2377 19.1073C49.4333 19.2665 49.5982 19.4763 49.7325 19.7367C49.8742 20.0115 49.9475 20.2851 49.9524 20.5572C49.9572 20.8294 49.8972 21.093 49.7722 21.3479C49.6473 21.6027 49.4646 21.8416 49.2243 22.0644C48.9839 22.2873 48.6901 22.4882 48.343 22.6672C48.0305 22.8283 47.7015 22.9467 47.3559 23.0224C47.0089 23.0951 46.6677 23.1117 46.3323 23.0723C45.9999 23.0313 45.6927 22.9186 45.4109 22.7343C45.1291 22.55 44.8964 22.2799 44.7129 21.9241L46.0192 21.2505C46.1206 21.4472 46.2368 21.5979 46.3677 21.7025C46.4986 21.8072 46.6406 21.8731 46.7938 21.9003C46.9499 21.9261 47.1143 21.9182 47.2871 21.8767C47.4627 21.8338 47.6431 21.7646 47.8282 21.6691C48.0539 21.5527 48.2227 21.4254 48.3345 21.2871C48.4492 21.1474 48.5122 21.0032 48.5235 20.8546C48.5376 20.7044 48.5081 20.5585 48.435 20.4167Z" fill="white"/>
<path d="M55.8252 18.1691L56.242 19.233L52.7185 20.6133L52.3018 19.5494L55.8252 18.1691ZM50.5709 13.8192L53.1641 20.4387L51.8002 20.973L49.207 14.3535L50.5709 13.8192ZM54.2458 15.4893L54.6519 16.5259L51.5876 17.7263L51.1815 16.6897L54.2458 15.4893ZM53.6443 12.6152L54.0628 13.6836L50.5439 15.0621L50.1253 13.9937L53.6443 12.6152Z" fill="white"/>
<path d="M55.541 12.0711L58.0984 11.3713C58.6227 11.2278 59.0947 11.183 59.5145 11.2369C59.9373 11.29 60.2929 11.4424 60.5812 11.6943C60.8695 11.9461 61.0751 12.2965 61.1979 12.7455C61.2984 13.1129 61.322 13.4456 61.2686 13.7437C61.2174 14.0378 61.1029 14.3037 60.9249 14.5414C60.7493 14.7751 60.5249 14.985 60.2518 15.1711L59.8688 15.529L57.6459 16.1373L57.3349 15.0378L58.988 14.5855C59.236 14.5176 59.4297 14.4173 59.5689 14.2848C59.7081 14.1522 59.797 13.9962 59.8357 13.8169C59.8775 13.6367 59.8701 13.443 59.8134 13.2358C59.7532 13.016 59.6604 12.8372 59.535 12.6994C59.4095 12.5616 59.252 12.4731 59.0624 12.4339C58.8728 12.3946 58.6524 12.4094 58.4012 12.4781L57.2568 12.7913L58.8303 18.5418L57.4174 18.9284L55.541 12.0711ZM61.2511 17.8794L58.8511 15.2506L60.3415 14.8327L62.7448 17.3997L62.7629 17.4657L61.2511 17.8794Z" fill="white"/>
<path d="M66.3826 15.434L67.1763 9.61887L68.7879 9.36914L67.4302 16.7737L66.3687 16.9382L66.3826 15.434ZM63.9965 10.1116L66.5081 15.4145L66.9863 16.8425L65.9151 17.0085L62.3945 10.3598L63.9965 10.1116Z" fill="white"/>
<path d="M72.0568 9.25195L72.4947 16.3478L71.0375 16.4377L70.5996 9.34187L72.0568 9.25195Z" fill="white"/>
<path d="M79.3507 14.0399L80.81 14.0844C80.7661 14.5618 80.6214 14.9824 80.3759 15.3462C80.1335 15.7101 79.801 15.9898 79.3781 16.1853C78.9586 16.381 78.4576 16.4699 77.8752 16.4522C77.4197 16.4383 77.0137 16.3477 76.6573 16.1805C76.301 16.0101 75.9988 15.7729 75.7508 15.469C75.5061 15.1652 75.3234 14.8014 75.2028 14.3776C75.0822 13.9538 75.0298 13.4816 75.0457 12.961L75.0607 12.4681C75.0766 11.9475 75.1592 11.4794 75.3087 11.0638C75.4615 10.6451 75.6709 10.2916 75.937 10.0034C76.2063 9.71519 76.524 9.49691 76.89 9.34849C77.256 9.20006 77.6619 9.13265 78.1077 9.14624C78.6998 9.16429 79.196 9.28689 79.5962 9.51403C79.9996 9.74127 80.3078 10.0471 80.5208 10.4313C80.7371 10.8157 80.8606 11.2494 80.8915 11.7323L79.4273 11.6877C79.4198 11.4008 79.3702 11.1567 79.2787 10.9553C79.1872 10.7506 79.0438 10.5947 78.8484 10.4878C78.6563 10.3778 78.3976 10.3178 78.0723 10.3078C77.8282 10.3004 77.6137 10.3395 77.4287 10.425C77.2438 10.5106 77.0866 10.6442 76.9573 10.8259C76.828 11.0076 76.7282 11.239 76.6577 11.5202C76.5906 11.7982 76.5513 12.126 76.5398 12.5034L76.5245 13.0061C76.5133 13.3737 76.5311 13.6983 76.5778 13.9798C76.6247 14.2581 76.7022 14.4949 76.8102 14.6904C76.9216 14.8827 77.0669 15.0304 77.2461 15.1335C77.4287 15.2336 77.6501 15.2875 77.9104 15.2955C78.2163 15.3048 78.4699 15.2637 78.6714 15.1721C78.8728 15.0806 79.0285 14.9404 79.1385 14.7516C79.2517 14.5629 79.3225 14.3257 79.3507 14.0399Z" fill="white"/>
<path d="M86.9051 16.1922L86.7493 17.3241L83.0005 16.8083L83.1563 15.6764L86.9051 16.1922ZM84.4437 9.83055L83.4745 16.8735L82.0234 16.6738L82.9926 9.63086L84.4437 9.83055ZM86.8352 13.0824L86.6835 14.1853L83.4232 13.7366L83.5749 12.6337L86.8352 13.0824ZM87.7137 10.2805L87.5573 11.4172L83.8132 10.902L83.9697 9.76532L87.7137 10.2805Z" fill="white"/>
<path d="M91.9681 16.7132C91.9982 16.5899 92.0062 16.4746 91.9922 16.3673C91.9821 16.2576 91.9381 16.1497 91.8602 16.0435C91.783 15.9342 91.6659 15.8168 91.5089 15.6913C91.3519 15.5659 91.1434 15.4245 90.8836 15.2673C90.5953 15.0896 90.3258 14.9032 90.0752 14.708C89.8278 14.5135 89.6171 14.3063 89.443 14.0862C89.2728 13.8637 89.1535 13.6251 89.0849 13.3705C89.0196 13.1166 89.0232 12.841 89.0958 12.5438C89.1661 12.256 89.293 12.0106 89.4766 11.8074C89.661 11.6011 89.8875 11.442 90.1562 11.33C90.4255 11.2148 90.7264 11.1492 91.0587 11.1332C91.3941 11.1179 91.7484 11.1558 92.1216 11.2469C92.6307 11.3713 93.0526 11.5715 93.3873 11.8475C93.722 12.1236 93.9547 12.4468 94.0855 12.8172C94.2193 13.1883 94.2361 13.5794 94.1357 13.9905L92.7222 13.6454C92.7716 13.443 92.7721 13.2555 92.7238 13.0828C92.6794 12.9078 92.5827 12.7552 92.4335 12.6249C92.2875 12.4954 92.0865 12.3994 91.8303 12.3369C91.5837 12.2767 91.3689 12.2644 91.1859 12.3002C91.0037 12.3328 90.856 12.4023 90.7429 12.5087C90.6306 12.6119 90.5555 12.741 90.5177 12.896C90.4891 13.013 90.4917 13.1259 90.5255 13.2346C90.5624 13.3442 90.6293 13.4543 90.7262 13.5651C90.8232 13.6759 90.9481 13.7885 91.1011 13.903C91.2541 14.0174 91.4344 14.1368 91.6419 14.2612C91.9905 14.4669 92.2897 14.6757 92.5395 14.8875C92.7925 15.1 92.9939 15.3184 93.1435 15.5426C93.2932 15.7668 93.3896 16.0031 93.4329 16.2516C93.4761 16.5 93.4629 16.7666 93.3934 17.0512C93.3201 17.3516 93.1959 17.6061 93.021 17.8147C92.8461 18.0233 92.6279 18.1828 92.3664 18.2932C92.1049 18.4036 91.8103 18.464 91.4827 18.4745C91.1551 18.485 90.8016 18.4439 90.4221 18.3513C90.0806 18.2679 89.7546 18.1414 89.4442 17.9718C89.1345 17.799 88.8661 17.5877 88.639 17.3379C88.4149 17.0888 88.257 16.8023 88.1653 16.4783C88.0735 16.1543 88.0751 15.7978 88.17 15.4089L89.5978 15.7575C89.5453 15.9725 89.5341 16.1625 89.5642 16.3273C89.5944 16.4922 89.6583 16.6351 89.7561 16.7562C89.857 16.878 89.9863 16.9799 90.1438 17.0619C90.3046 17.1447 90.4861 17.2109 90.6885 17.2603C90.9352 17.3205 91.1461 17.3351 91.3212 17.3042C91.4994 17.274 91.6416 17.2065 91.7476 17.1017C91.8567 16.9977 91.9302 16.8682 91.9681 16.7132Z" fill="white"/>
<path d="M104.402 19.5067L103.271 22.0871C103.116 22.165 102.901 22.229 102.627 22.2794C102.354 22.3267 102.028 22.3279 101.649 22.2829C101.271 22.2379 100.845 22.1116 100.371 21.9038C99.9507 21.7195 99.5976 21.4831 99.3119 21.1943C99.0274 20.9026 98.8188 20.5677 98.686 20.1896C98.5561 19.8129 98.509 19.4013 98.5447 18.9549C98.5818 18.5055 98.71 18.0304 98.9296 17.5295L99.1079 17.1225C99.3274 16.6217 99.5869 16.204 99.8863 15.8697C100.188 15.5366 100.519 15.2888 100.878 15.1263C101.237 14.9638 101.615 14.8857 102.01 14.8919C102.405 14.8982 102.807 14.9908 103.216 15.1698C103.782 15.4181 104.207 15.7143 104.489 16.0586C104.773 16.3999 104.94 16.7748 104.988 17.1834C105.041 17.5904 104.998 18.0123 104.86 18.4493L103.558 17.879C103.622 17.644 103.644 17.4242 103.623 17.2197C103.603 17.0152 103.526 16.8289 103.394 16.6607C103.264 16.4938 103.064 16.3509 102.793 16.232C102.569 16.134 102.349 16.0926 102.133 16.1079C101.921 16.1216 101.716 16.1902 101.52 16.3139C101.324 16.4375 101.137 16.6153 100.961 16.8472C100.785 17.0792 100.621 17.3666 100.471 17.7095L100.289 18.1254C100.14 18.4653 100.041 18.7807 99.9915 19.0719C99.9434 19.36 99.9443 19.6216 99.9941 19.8567C100.048 20.0901 100.151 20.2933 100.302 20.4664C100.454 20.6394 100.657 20.7815 100.91 20.8926C101.122 20.9854 101.305 21.0446 101.461 21.0702C101.62 21.0972 101.754 21.1042 101.862 21.0914C101.975 21.077 102.066 21.0563 102.135 21.0296L102.64 19.8757L101.415 19.3387L101.835 18.3816L104.402 19.5067Z" fill="white"/>
<path d="M110.92 19.3892L112.182 20.1227L109.822 24.184C109.547 24.6568 109.214 24.9962 108.824 25.2021C108.436 25.4097 108.017 25.492 107.567 25.4492C107.121 25.408 106.668 25.2541 106.209 24.9875C105.751 24.7209 105.39 24.4021 105.127 24.0311C104.868 23.6618 104.73 23.2564 104.716 22.815C104.704 22.3752 104.836 21.9189 105.11 21.4461L107.471 17.3848L108.737 18.1208L106.377 22.1821C106.217 22.4579 106.129 22.7084 106.115 22.9336C106.101 23.1588 106.152 23.3596 106.268 23.5361C106.386 23.7142 106.558 23.8687 106.783 23.9996C107.014 24.1337 107.234 24.2066 107.441 24.2182C107.652 24.2314 107.85 24.1753 108.036 24.0499C108.225 23.9261 108.399 23.7263 108.56 23.4505L110.92 19.3892Z" fill="white"/>
<path d="M114.031 21.458L116.158 23.0409C116.594 23.3655 116.92 23.7096 117.137 24.0734C117.355 24.4391 117.454 24.8131 117.434 25.1954C117.413 25.5776 117.264 25.9554 116.986 26.3289C116.758 26.6344 116.511 26.858 116.243 26.9996C115.98 27.1405 115.7 27.2142 115.403 27.2205C115.111 27.2261 114.807 27.1788 114.492 27.0784L113.975 26.9973L112.126 25.6213L112.8 24.6989L114.175 25.7221C114.381 25.8756 114.579 25.9664 114.77 25.9943C114.96 26.0223 115.137 25.9962 115.303 25.9162C115.47 25.8381 115.618 25.7128 115.746 25.5405C115.882 25.3577 115.966 25.1744 115.997 24.9907C116.029 24.807 116.001 24.6284 115.915 24.4549C115.829 24.2814 115.682 24.1169 115.473 23.9614L114.521 23.253L110.962 28.0358L109.787 27.1613L114.031 21.458ZM112.975 29.5342L113.567 26.0242L114.814 26.9404L114.273 30.4151L114.233 30.47L112.975 29.5342Z" fill="white"/>
<path d="M121.318 29.0765L115.876 32.0536L114.74 30.9883L121.529 27.6084L122.252 28.2863L121.318 29.0765ZM118.459 34.4748L121.075 28.8494L121.793 27.8555L122.523 28.5401L119.599 35.5434L118.459 34.4748ZM120.205 32.4839L119.42 33.3211L116.681 30.753L117.465 29.9158L120.205 32.4839Z" fill="white"/>
<path d="M129.22 36.0438L123.786 40.6278L122.841 39.5081L124.642 34.252L120.999 37.3248L120.055 36.2051L125.489 31.6211L126.433 32.7407L124.632 38.0038L128.278 34.9278L129.22 36.0438Z" fill="white"/>
<path d="M132.284 40.6248L126.367 44.5648L125.557 43.3495L131.475 39.4096L132.284 40.6248ZM133.497 42.4457L132.541 43.0816L129.327 38.2531L130.282 37.6172L133.497 42.4457Z" fill="white"/>
<path d="M131.256 51.0615L130.245 51.5939L128.482 48.2455L129.493 47.7132L131.256 51.0615ZM134.996 45.3566L128.705 48.6689L128.023 47.3727L134.313 44.0605L134.996 45.3566ZM133.744 49.1943L132.759 49.7129L131.226 46.8009L132.211 46.2822L133.744 49.1943ZM136.534 48.2773L135.518 48.8119L133.758 45.4678L134.773 44.9332L136.534 48.2773Z" fill="white"/>
<path d="M133.529 56.744L132.47 57.1736L131.047 53.6671L132.106 53.2375L133.529 56.744ZM137.815 51.4374L131.227 54.1105L130.676 52.7531L137.264 50.0801L137.815 51.4374ZM136.189 55.1322L135.157 55.5508L133.92 52.5013L134.952 52.0827L136.189 55.1322ZM139.056 54.496L137.992 54.9274L136.571 51.4254L137.635 50.994L139.056 54.496Z" fill="white"/>
<path d="M133.389 60.443L132.962 58.9551L134.063 58.6496L134.487 60.1281C134.593 60.4974 134.765 60.785 135.003 60.9909C135.245 61.1959 135.545 61.3164 135.904 61.3523C136.264 61.3913 136.673 61.3453 137.13 61.2144L137.463 61.1188C137.813 61.0184 138.111 60.8924 138.355 60.7411C138.601 60.5929 138.794 60.4208 138.934 60.2248C139.074 60.0288 139.159 59.813 139.19 59.5773C139.224 59.3408 139.202 59.0864 139.124 58.8141L138.685 57.284L139.788 56.9678L140.227 58.4979C140.358 58.9548 140.399 59.395 140.351 59.8184C140.307 60.2442 140.181 60.6375 139.973 60.9985C139.765 61.3596 139.483 61.6726 139.125 61.9376C138.772 62.2049 138.351 62.4085 137.863 62.5484L137.539 62.6413C137.054 62.7803 136.589 62.8306 136.145 62.7921C135.701 62.7567 135.295 62.641 134.928 62.445C134.564 62.2513 134.249 61.9844 133.982 61.6444C133.719 61.3066 133.521 60.9061 133.389 60.443ZM140.025 57.7939L133.191 59.753L132.787 58.3449L139.621 56.3857L140.025 57.7939Z" fill="white"/>
<path d="M135.537 90.3617L135.97 88.6025L137.079 88.8752L136.647 90.6344C136.58 90.9062 136.57 91.1384 136.616 91.3309C136.666 91.5241 136.762 91.68 136.904 91.7987C137.046 91.9173 137.218 92.0015 137.42 92.0512C137.625 92.1017 137.826 92.1092 138.023 92.0736C138.219 92.0381 138.392 91.9482 138.542 91.8039C138.691 91.6596 138.799 91.4515 138.866 91.1797L139.177 89.9136L133.387 88.491L133.737 87.0684L140.641 88.7649L139.98 91.4535C139.847 91.994 139.636 92.4331 139.345 92.7706C139.057 93.112 138.716 93.3435 138.325 93.4651C137.933 93.5867 137.517 93.5935 137.078 93.4855C136.632 93.376 136.271 93.1785 135.996 92.893C135.721 92.6076 135.543 92.2486 135.461 91.8163C135.379 91.3872 135.404 90.9023 135.537 90.3617Z" fill="white"/>
<path d="M138.595 96.1481L137.675 98.6348C137.487 99.1446 137.248 99.5545 136.96 99.8644C136.671 100.177 136.34 100.378 135.967 100.465C135.594 100.553 135.19 100.516 134.753 100.355C134.396 100.223 134.112 100.048 133.901 99.8312C133.691 99.6184 133.542 99.3705 133.452 99.0874C133.364 98.8085 133.324 98.5039 133.332 98.1735L133.264 97.6538L134.064 95.4923L135.139 95.8795L134.544 97.4869C134.455 97.7281 134.423 97.9439 134.45 98.1343C134.477 98.3246 134.552 98.4878 134.675 98.6236C134.797 98.7625 134.959 98.8692 135.161 98.9438C135.374 99.0228 135.574 99.0515 135.759 99.0297C135.944 99.0079 136.108 98.9313 136.25 98.8C136.392 98.6687 136.509 98.4809 136.599 98.2367L137.011 97.1239L131.419 95.0554L131.927 93.6816L138.595 96.1481ZM130.548 97.4093L134.083 96.9883L133.555 98.4434L130.069 98.9031L130.004 98.8793L130.548 97.4093Z" fill="white"/>
<path d="M128.263 104.841L127.24 104.333L128.922 100.943L129.945 101.451L128.263 104.841ZM135.078 104.532L128.709 101.372L129.36 100.06L135.729 103.22L135.078 104.532ZM131.234 105.764L130.237 105.27L131.699 102.322L132.697 102.816L131.234 105.764ZM133.611 107.489L132.583 106.979L134.263 103.593L135.29 104.103L133.611 107.489Z" fill="white"/>
<path d="M132.199 109.791L131.518 110.827L126.152 109.489L129.513 113.88L128.832 114.917L124.3 108.868L124.846 108.035L132.199 109.791ZM132.566 109.232L131.888 110.264L127.512 107.659L125.822 106.55L126.623 105.329L132.566 109.232ZM129.143 114.444L128.463 115.48L122.52 111.578L123.324 110.354L125.014 111.463L129.143 114.444Z" fill="white"/>
<path d="M126.13 118.132L120.635 113.621L121.561 112.493L127.056 117.003L126.13 118.132Z" fill="white"/>
<path d="M121.178 123.414L120.152 124.453L116.811 121.151C116.422 120.767 116.177 120.36 116.075 119.93C115.971 119.502 115.996 119.076 116.15 118.652C116.302 118.23 116.564 117.83 116.937 117.453C117.31 117.075 117.709 116.806 118.134 116.644C118.556 116.485 118.983 116.454 119.414 116.55C119.843 116.649 120.252 116.891 120.641 117.275L123.982 120.577L122.953 121.619L119.611 118.317C119.384 118.093 119.164 117.946 118.949 117.876C118.735 117.805 118.527 117.804 118.328 117.872C118.126 117.943 117.933 118.07 117.75 118.256C117.562 118.446 117.437 118.64 117.374 118.838C117.308 119.039 117.313 119.245 117.388 119.456C117.46 119.67 117.61 119.888 117.837 120.113L121.178 123.414Z" fill="white"/>
<path d="M117.842 126.383L116.865 127.147L112.211 124.161L113.988 129.398L113.012 130.162L110.654 122.98L111.439 122.366L117.842 126.383ZM118.369 125.971L117.396 126.732L114.084 122.863L112.838 121.271L113.988 120.371L118.369 125.971ZM113.458 129.813L112.481 130.577L108.1 124.977L109.254 124.075L110.5 125.667L113.458 129.813Z" fill="white"/>
<path d="M101.281 130.787C101.339 130.9 101.409 130.992 101.49 131.064C101.57 131.14 101.674 131.193 101.802 131.222C101.932 131.254 102.097 131.265 102.298 131.257C102.499 131.249 102.749 131.219 103.048 131.167C103.382 131.112 103.708 131.076 104.025 131.059C104.34 131.043 104.635 131.061 104.91 131.113C105.185 131.17 105.431 131.271 105.65 131.419C105.866 131.567 106.044 131.778 106.184 132.05C106.32 132.313 106.385 132.581 106.38 132.855C106.376 133.132 106.31 133.4 106.18 133.661C106.053 133.925 105.869 134.172 105.628 134.402C105.385 134.633 105.093 134.837 104.752 135.013C104.286 135.254 103.836 135.379 103.402 135.391C102.969 135.402 102.581 135.31 102.239 135.117C101.895 134.924 101.626 134.64 101.432 134.264L102.725 133.597C102.82 133.782 102.943 133.924 103.093 134.023C103.241 134.126 103.414 134.178 103.612 134.178C103.807 134.18 104.022 134.121 104.256 134C104.482 133.883 104.652 133.752 104.767 133.605C104.883 133.46 104.949 133.311 104.964 133.157C104.981 133.005 104.953 132.858 104.88 132.717C104.825 132.61 104.749 132.526 104.652 132.466C104.552 132.408 104.43 132.368 104.284 132.348C104.138 132.328 103.97 132.325 103.779 132.339C103.589 132.353 103.374 132.382 103.136 132.424C102.738 132.497 102.375 132.536 102.048 132.54C101.717 132.546 101.422 132.513 101.162 132.442C100.902 132.371 100.674 132.256 100.479 132.097C100.283 131.937 100.118 131.728 99.9838 131.467C99.842 131.192 99.7688 130.919 99.7639 130.647C99.7591 130.375 99.8191 130.111 99.944 129.856C100.069 129.601 100.252 129.362 100.492 129.14C100.732 128.917 101.026 128.716 101.373 128.537C101.686 128.376 102.015 128.257 102.36 128.182C102.707 128.109 103.049 128.092 103.384 128.132C103.716 128.173 104.024 128.285 104.305 128.47C104.587 128.654 104.82 128.924 105.003 129.28L103.697 129.953C103.596 129.757 103.479 129.606 103.349 129.501C103.218 129.397 103.076 129.331 102.922 129.304C102.766 129.278 102.602 129.286 102.429 129.327C102.254 129.37 102.073 129.439 101.888 129.535C101.662 129.651 101.494 129.779 101.382 129.917C101.267 130.057 101.204 130.201 101.193 130.349C101.179 130.499 101.208 130.645 101.281 130.787Z" fill="white"/>
<path d="M93.8933 133.035L93.4766 131.971L97 130.59L97.4168 131.654L93.8933 133.035ZM99.1477 137.384L96.5545 130.765L97.9184 130.231L100.511 136.85L99.1477 137.384ZM95.4728 135.714L95.0667 134.678L98.131 133.477L98.5371 134.514L95.4728 135.714ZM96.0743 138.588L95.6558 137.52L99.1747 136.142L99.5932 137.21L96.0743 138.588Z" fill="white"/>
<path d="M94.177 139.133L91.6196 139.833C91.0953 139.976 90.6232 140.021 90.2035 139.967C89.7806 139.914 89.425 139.762 89.1368 139.51C88.8485 139.258 88.6429 138.907 88.5201 138.458C88.4195 138.091 88.396 137.758 88.4494 137.46C88.5005 137.166 88.6151 136.9 88.793 136.663C88.9687 136.429 89.1931 136.219 89.4662 136.033L89.8491 135.675L92.0721 135.067L92.3831 136.166L90.73 136.619C90.4819 136.686 90.2883 136.787 90.1491 136.919C90.0099 137.052 89.921 137.208 89.8823 137.387C89.8405 137.567 89.8479 137.761 89.9046 137.968C89.9647 138.188 90.0575 138.367 90.183 138.505C90.3084 138.642 90.466 138.731 90.6556 138.77C90.8452 138.809 91.0656 138.795 91.3168 138.726L92.4612 138.413L90.8877 132.662L92.3006 132.276L94.177 139.133ZM88.4669 133.325L90.8669 135.953L89.3765 136.371L86.9731 133.804L86.9551 133.738L88.4669 133.325Z" fill="white"/>
<path d="M83.337 135.769L82.5433 141.584L80.9316 141.834L82.2894 134.429L83.3509 134.265L83.337 135.769ZM85.7231 141.092L83.2115 135.789L82.7333 134.361L83.8045 134.195L87.3251 140.843L85.7231 141.092Z" fill="white"/>
<path d="M77.6606 141.951L77.2227 134.856L78.6799 134.766L79.1178 141.861L77.6606 141.951Z" fill="white"/>
<path d="M70.3669 137.164L68.9077 137.12C68.9515 136.642 69.0962 136.222 69.3418 135.858C69.5841 135.494 69.9167 135.214 70.3395 135.019C70.7591 134.823 71.2601 134.734 71.8425 134.752C72.298 134.766 72.704 134.856 73.0604 135.024C73.4167 135.194 73.7188 135.431 73.9668 135.735C74.2116 136.039 74.3943 136.403 74.5149 136.827C74.6355 137.25 74.6879 137.723 74.672 138.243L74.657 138.736C74.6411 139.257 74.5584 139.725 74.409 140.14C74.2562 140.559 74.0468 140.912 73.7807 141.201C73.5114 141.489 73.1937 141.707 72.8277 141.856C72.4617 142.004 72.0558 142.071 71.61 142.058C71.0178 142.04 70.5217 141.917 70.1215 141.69C69.7181 141.463 69.4099 141.157 69.1969 140.773C68.9806 140.388 68.8571 139.955 68.8262 139.472L70.2904 139.516C70.2979 139.803 70.3474 140.047 70.439 140.249C70.5305 140.454 70.6739 140.609 70.8693 140.716C71.0613 140.826 71.3201 140.886 71.6454 140.896C71.8894 140.904 72.104 140.865 72.2889 140.779C72.4739 140.694 72.6311 140.56 72.7604 140.378C72.8897 140.197 72.9895 139.965 73.06 139.684C73.1271 139.406 73.1664 139.078 73.1779 138.701L73.1932 138.198C73.2044 137.83 73.1866 137.506 73.1398 137.224C73.093 136.946 73.0155 136.709 72.9075 136.514C72.7961 136.321 72.6508 136.174 72.4716 136.071C72.289 135.971 72.0675 135.917 71.8072 135.909C71.5014 135.899 71.2477 135.94 71.0463 136.032C70.8448 136.124 70.6891 136.264 70.5792 136.453C70.4659 136.641 70.3952 136.878 70.3669 137.164Z" fill="white"/>
<path d="M62.8125 135.012L62.9682 133.88L66.7171 134.396L66.5613 135.527L62.8125 135.012ZM65.2739 141.373L66.243 134.33L67.6942 134.53L66.725 141.573L65.2739 141.373ZM62.8823 138.121L63.0341 137.019L66.2944 137.467L66.1426 138.57L62.8823 138.121ZM62.0039 140.923L62.1603 139.787L65.9043 140.302L65.7479 141.439L62.0039 140.923Z" fill="white"/>
<path d="M57.7498 134.49C57.7197 134.614 57.7116 134.729 57.7256 134.836C57.7357 134.946 57.7797 135.054 57.8577 135.16C57.9349 135.269 58.0519 135.387 58.2089 135.512C58.3659 135.638 58.5744 135.779 58.8343 135.936C59.1226 136.114 59.3921 136.3 59.6426 136.495C59.89 136.69 60.1008 136.897 60.2749 137.117C60.4451 137.34 60.5644 137.578 60.6329 137.833C60.6983 138.087 60.6947 138.362 60.6221 138.66C60.5518 138.947 60.4248 139.193 60.2411 139.396C60.0567 139.602 59.8302 139.761 59.5616 139.873C59.2922 139.989 58.9914 140.054 58.6591 140.07C58.3236 140.086 57.9694 140.048 57.5963 139.956C57.0871 139.832 56.6652 139.632 56.3305 139.356C55.9958 139.08 55.7631 138.757 55.6324 138.386C55.4985 138.015 55.4817 137.624 55.582 137.213L56.9957 137.558C56.9463 137.76 56.9456 137.948 56.994 138.121C57.0383 138.296 57.1352 138.448 57.2843 138.579C57.4303 138.708 57.6314 138.804 57.8875 138.867C58.1342 138.927 58.349 138.939 58.532 138.903C58.7142 138.871 58.8617 138.801 58.9748 138.695C59.0872 138.592 59.1623 138.462 59.2001 138.307C59.2287 138.19 59.2262 138.078 59.1924 137.969C59.1555 137.859 59.0885 137.749 58.9915 137.638C58.8946 137.528 58.7696 137.415 58.6166 137.3C58.4636 137.186 58.2835 137.067 58.0759 136.942C57.7274 136.737 57.4282 136.528 57.1784 136.316C56.9253 136.103 56.7239 135.885 56.5742 135.661C56.4246 135.437 56.3281 135.2 56.2849 134.952C56.2417 134.703 56.255 134.437 56.3244 134.152C56.3978 133.852 56.5219 133.597 56.6968 133.389C56.8718 133.18 57.09 133.021 57.3515 132.91C57.613 132.8 57.9075 132.739 58.235 132.729C58.5626 132.718 58.9162 132.76 59.2957 132.852C59.6373 132.936 59.9633 133.062 60.2737 133.232C60.5833 133.404 60.8516 133.616 61.0788 133.866C61.3028 134.115 61.4608 134.401 61.5526 134.725C61.6444 135.049 61.6428 135.406 61.5478 135.795L60.1199 135.446C60.1725 135.231 60.1836 135.041 60.1535 134.876C60.1234 134.711 60.0595 134.568 59.9617 134.447C59.8608 134.325 59.7316 134.224 59.574 134.141C59.4133 134.059 59.2317 133.993 59.0293 133.943C58.7826 133.883 58.5718 133.868 58.3967 133.899C58.2185 133.929 58.0762 133.997 57.9702 134.102C57.861 134.206 57.7876 134.335 57.7498 134.49Z" fill="white"/>
<path d="M45.3152 131.697L46.4462 129.117C46.6011 129.039 46.8158 128.975 47.0902 128.925C47.3633 128.877 47.689 128.876 48.0673 128.921C48.4457 128.966 48.8719 129.093 49.3459 129.3C49.7663 129.485 50.1194 129.721 50.4051 130.01C50.6895 130.301 50.8982 130.636 51.031 131.014C51.1609 131.391 51.2079 131.803 51.1722 132.249C51.1352 132.699 51.0069 133.174 50.7874 133.675L50.6091 134.082C50.3895 134.582 50.1301 135 49.8307 135.334C49.5283 135.667 49.1976 135.915 48.8385 136.078C48.4794 136.24 48.1022 136.318 47.7069 136.312C47.3115 136.306 46.9096 136.213 46.5012 136.034C45.9347 135.786 45.5101 135.49 45.2274 135.145C44.9434 134.804 44.7772 134.429 44.7288 134.021C44.6761 133.614 44.7189 133.192 44.8571 132.755L46.1585 133.325C46.0946 133.56 46.0729 133.78 46.0935 133.984C46.114 134.189 46.1905 134.375 46.3229 134.543C46.4524 134.71 46.6527 134.853 46.924 134.972C47.1477 135.07 47.3677 135.111 47.5841 135.096C47.7962 135.082 48.0004 135.014 48.1968 134.89C48.3931 134.767 48.5795 134.589 48.7558 134.357C48.932 134.125 49.0953 133.837 49.2456 133.495L49.4279 133.079C49.5769 132.739 49.676 132.423 49.7254 132.132C49.7735 131.844 49.7727 131.582 49.7229 131.347C49.6688 131.114 49.5659 130.911 49.4143 130.738C49.2627 130.565 49.0602 130.423 48.8068 130.311C48.5951 130.219 48.4114 130.159 48.2555 130.134C48.0968 130.107 47.963 130.1 47.8543 130.113C47.7414 130.127 47.6506 130.148 47.582 130.175L47.0763 131.328L48.3017 131.865L47.8822 132.822L45.3152 131.697Z" fill="white"/>
<path d="M38.7994 131.814L37.5371 131.081L39.8972 127.02C40.172 126.547 40.5047 126.207 40.8955 126.001C41.2834 125.794 41.7021 125.712 42.1516 125.754C42.5983 125.796 43.051 125.949 43.5097 126.216C43.9685 126.483 44.3292 126.801 44.5917 127.172C44.8515 127.542 44.9887 127.947 45.0032 128.389C45.015 128.828 44.8834 129.285 44.6087 129.757L42.2485 133.819L40.982 133.083L43.3421 129.021C43.5024 128.746 43.5896 128.495 43.6038 128.27C43.618 128.045 43.5671 127.844 43.4513 127.667C43.3327 127.489 43.1608 127.335 42.9357 127.204C42.7049 127.07 42.4855 126.997 42.2777 126.985C42.067 126.972 41.8688 127.028 41.6829 127.154C41.4943 127.277 41.3198 127.477 41.1595 127.753L38.7994 131.814Z" fill="white"/>
<path d="M35.6865 129.745L33.5595 128.162C33.1234 127.838 32.7972 127.494 32.581 127.13C32.3622 126.764 32.2632 126.39 32.2839 126.008C32.3046 125.626 32.4539 125.248 32.7319 124.874C32.9592 124.569 33.2068 124.345 33.4745 124.204C33.7376 124.063 34.0176 123.989 34.3145 123.983C34.6068 123.977 34.9103 124.025 35.2252 124.125L35.7431 124.206L37.5919 125.582L36.9176 126.504L35.5427 125.481C35.3364 125.328 35.1382 125.237 34.948 125.209C34.7577 125.181 34.5801 125.207 34.415 125.287C34.2474 125.365 34.0994 125.49 33.9711 125.663C33.8351 125.846 33.7514 126.029 33.7202 126.213C33.689 126.396 33.7164 126.575 33.8023 126.748C33.8882 126.922 34.0356 127.086 34.2446 127.242L35.1964 127.95L38.7558 123.168L39.931 124.042L35.6865 129.745ZM36.7424 121.669L36.151 125.179L34.9034 124.263L35.4442 120.788L35.485 120.733L36.7424 121.669Z" fill="white"/>
<path d="M28.3989 122.127L33.8404 119.15L34.9767 120.215L28.1872 123.595L27.4641 122.917L28.3989 122.127ZM31.2578 116.729L28.6412 122.354L27.9236 123.348L27.1934 122.663L30.1179 115.66L31.2578 116.729ZM29.5119 118.719L30.2967 117.882L33.036 120.45L32.2512 121.288L29.5119 118.719Z" fill="white"/>
<path d="M20.498 115.16L25.9321 110.576L26.8767 111.695L25.0758 116.952L28.7185 113.879L29.663 114.998L24.2288 119.582L23.2843 118.463L25.0858 113.2L21.4394 116.276L20.498 115.16Z" fill="white"/>
<path d="M17.435 110.579L23.3528 106.639L24.1619 107.854L18.2441 111.794L17.435 110.579ZM16.2227 108.758L17.1778 108.122L20.3926 112.951L19.4374 113.586L16.2227 108.758Z" fill="white"/>
<path d="M18.4609 100.142L19.4719 99.6094L21.235 102.958L20.224 103.49L18.4609 100.142ZM14.7214 105.847L21.012 102.534L21.6945 103.83L15.4039 107.143L14.7214 105.847ZM15.9731 102.009L16.9582 101.49L18.4915 104.402L17.5064 104.921L15.9731 102.009ZM13.1836 102.926L14.1989 102.391L15.9597 105.735L14.9443 106.27L13.1836 102.926Z" fill="white"/>
<path d="M16.1912 94.4599L17.25 94.0303L18.6728 97.5368L17.614 97.9664L16.1912 94.4599ZM11.9051 99.7664L18.4928 97.0934L19.0436 98.4507L12.4559 101.123L11.9051 99.7664ZM13.5307 96.0716L14.5623 95.653L15.7997 98.7026L14.7681 99.1211L13.5307 96.0716ZM10.6641 96.7078L11.7273 96.2764L13.1483 99.7784L12.085 100.209L10.6641 96.7078Z" fill="white"/>
<path d="M16.3276 90.7609L16.7542 92.2488L15.6532 92.5543L15.2293 91.0758C15.1235 90.7065 14.9513 90.419 14.7128 90.213C14.4711 90.008 14.1708 89.8876 13.8117 89.8517C13.4517 89.8126 13.0433 89.8587 12.5864 89.9897L12.2532 90.0851C11.9027 90.1856 11.6052 90.3115 11.3608 90.4628C11.1155 90.6111 10.9227 90.7832 10.7824 90.9791C10.6422 91.1751 10.5568 91.3909 10.5261 91.6266C10.4924 91.8631 10.5145 92.1176 10.5925 92.3899L11.0312 93.9199L9.9282 94.2362L9.48954 92.7061C9.35857 92.2492 9.31704 91.809 9.36495 91.3855C9.40884 90.9598 9.53481 90.5664 9.74286 90.2054C9.9509 89.8444 10.2336 89.5313 10.5911 89.2663C10.9446 88.9991 11.3654 88.7955 11.8535 88.6555L12.1774 88.5627C12.6624 88.4236 13.1271 88.3734 13.5716 88.4119C14.0152 88.4472 14.4209 88.5629 14.7886 88.7589C15.1523 88.9526 15.4675 89.2195 15.7343 89.5595C15.9971 89.8973 16.1949 90.2978 16.3276 90.7609ZM9.69137 93.4101L16.5254 91.4509L16.9291 92.8591L10.095 94.8182L9.69137 93.4101Z" fill="white"/>
<path d="M10.2699 78.2624C11.7975 78.2624 13.0358 77.024 13.0358 75.4964C13.0358 73.9688 11.7975 72.7305 10.2699 72.7305C8.74227 72.7305 7.50391 73.9688 7.50391 75.4964C7.50391 77.024 8.74227 78.2624 10.2699 78.2624Z" fill="white"/>
<path d="M138.426 78.2624C139.954 78.2624 141.192 77.024 141.192 75.4964C141.192 73.9688 139.954 72.7305 138.426 72.7305C136.899 72.7305 135.66 73.9688 135.66 75.4964C135.66 77.024 136.899 78.2624 138.426 78.2624Z" fill="white"/>
<path d="M103.001 91.9693L93.6047 79.1709C94.9339 78.6052 96.358 78.0789 96.8541 76.9639C97.6809 75.1061 95.5705 72.4285 95.8441 70.5025C96.1261 68.5203 98.8286 66.5428 98.6192 64.5809C98.4152 62.6695 95.1987 60.7542 94.5057 58.8875C93.8286 57.0634 95.3206 53.9982 94.1174 52.3592C92.9141 50.72 89.5427 51.225 88.0055 50.0323C86.4237 48.8048 86.0677 45.4267 84.2388 44.6862C82.4026 43.943 79.7795 46.1209 77.8033 45.8822C75.8496 45.6463 73.8396 42.9571 71.8479 43.1696C69.8266 43.3853 66.9592 46.9851 66.4675 47.1561C64.5875 47.8099 61.5609 46.2395 59.925 47.3572C58.2956 48.4699 58.6667 51.8468 57.3824 53.3824C56.134 54.8749 52.7326 55.0989 51.9056 56.9567C51.0788 58.8142 53.1891 61.4912 52.9157 63.4181C52.6416 65.3499 49.864 67.574 50.0962 69.7495C50.3056 71.7116 53.3711 73.0683 54.0679 74.945C54.7452 76.7691 53.2531 79.834 54.4564 81.4737C55.1115 82.3662 56.4091 82.6228 57.7035 82.8644C57.8545 82.8926 58.1488 83.0268 57.9905 83.3201L51.6558 97.5496C51.2076 98.5564 51.7405 99.3215 52.8398 99.2507L58.221 98.9024C59.3203 98.8317 60.7782 99.4805 61.4613 100.345L64.804 104.576C65.4871 105.44 66.4122 105.324 66.8603 104.317C66.8603 104.317 73.3853 89.6545 73.3882 89.6503C73.5286 89.4456 73.6941 89.4669 73.7783 89.5242C74.7329 90.176 76.0323 90.7892 77.0505 90.6805C78.0491 90.574 78.8991 89.7755 79.7305 88.8975C79.7981 88.8261 79.9654 88.6768 80.1266 88.9325C80.1292 88.9365 89.5845 101.818 89.5845 101.818C90.2363 102.706 91.1651 102.623 91.6485 101.633L94.0145 96.787C94.4982 95.7976 95.7844 94.8528 96.8738 94.6883L102.206 93.8833C103.295 93.7185 103.652 92.8572 103.001 91.9693ZM84.8756 81.3403C79.3201 85.4184 72.1708 85.8078 66.3747 82.962C57.8735 78.7142 54.1301 68.4498 58.0326 59.683C61.9795 50.8152 72.3004 46.7334 81.217 50.4236C81.2638 50.443 81.3102 50.4632 81.3568 50.4831C81.4229 50.5111 81.489 50.5395 81.5549 50.5683C84.3145 51.7897 86.801 53.7245 88.7113 56.3268C94.5498 64.2807 92.8293 75.5018 84.8756 81.3403Z" fill="white"/>
<path d="M80.5027 53.2047C80.4766 53.1931 80.4503 53.1825 80.4242 53.171C75.6447 51.0461 69.887 51.4679 65.377 54.7786C58.6844 59.6914 57.2362 69.1329 62.149 75.8253C63.6481 77.8676 65.5695 79.4206 67.7053 80.4542C67.8877 80.5447 68.0719 80.6316 68.2577 80.7148C75.8426 84.0909 84.7592 80.6669 88.1352 73.0823C91.511 65.4974 88.0877 56.5808 80.5027 53.2047ZM83.5359 64.6916L81.2949 67.3964C80.6008 68.2341 80.2756 69.7761 80.5725 70.8228L81.5303 74.2022C81.827 75.249 81.2424 75.7771 80.2311 75.3759L76.966 74.0804C75.9547 73.6792 74.3878 73.8464 73.4839 74.452L70.5659 76.4073C69.662 77.0128 68.979 76.62 69.0482 75.5342L69.2713 72.0288C69.3404 70.943 68.6972 69.5044 67.8419 68.832L65.0807 66.661C64.2253 65.9887 64.3881 65.2177 65.442 64.9477L68.8447 64.0766C69.8987 63.8068 71.0681 62.7505 71.4434 61.7294L72.6549 58.4325C73.0302 57.4113 73.8137 57.3277 74.3959 58.2467L76.276 61.2137C76.8583 62.1326 78.2242 62.9184 79.3115 62.9597L82.8214 63.0931C83.9084 63.1346 84.23 63.8539 83.5359 64.6916Z" fill="white"/>
</svg>
