<svg xmlns="http://www.w3.org/2000/svg" version="1.1" xmlns:xlink="http://www.w3.org/1999/xlink" width="512" height="512" x="0" y="0" viewBox="0 0 512 512" style="enable-background:new 0 0 512 512" xml:space="preserve" class=""><g><path d="M100.571 128a8.772 8.772 0 0 0 6.339-2.625 8.936 8.936 0 0 0 2.804-6.518 26.882 26.882 0 0 1 8.161-19.447c10.875-10.307 27.935-10.228 38.714.179a26.723 26.723 0 0 1 7.982 19.268v54.857c.003 5.048 4.095 9.139 9.143 9.143a8.772 8.772 0 0 0 6.339-2.625 8.936 8.936 0 0 0 2.804-6.518v-54.857c.016-15.142 12.287-27.412 27.429-27.429 15.119.071 27.358 12.31 27.429 27.429v155.429c.003 5.048 4.095 9.139 9.143 9.143a8.772 8.772 0 0 0 6.339-2.625 8.936 8.936 0 0 0 2.804-6.518V84.571a107.498 107.498 0 0 1 16.17-58.33 57.588 57.588 0 0 1 6.634-8.839A60.68 60.68 0 0 0 290.249 0h-171.39A27.377 27.377 0 0 0 91.43 27.429v91.429a9.146 9.146 0 0 0 9.141 9.142zM210.286 365.714c-84.859 0-170.474-12.274-208.366-35.999C15.913 434.043 104.908 511.942 210.17 512c105.262.058 194.343-77.741 208.452-182.054-34.017 21.233-105.22 32.02-168.702 34.849-12.393.616-25.366.919-39.634.919z" fill="#ab8756" opacity="1" data-original="#000000" class=""></path><path d="M274.286 258.411v15.875c-.071 15.119-12.31 27.358-27.429 27.429-15.142-.017-27.412-12.287-27.429-27.429v-18.232c-3.035-.027-6.089-.054-9.143-.054C72.223 256 0 285.759 0 301.714s72.223 45.714 210.286 45.714c13.955 0 26.643-.295 38.768-.902 110.455-4.929 171.518-29.625 171.518-44.813 0-13.749-50.768-35.909-146.286-43.302zM484.572 0H309.443a71.712 71.712 0 0 1-17.095 29.688 39.936 39.936 0 0 0-4.679 6.25 81.26 81.26 0 0 0-8.67 18.92h205.572c15.148 0 27.429-12.28 27.429-27.429S499.72 0 484.572 0z" fill="#ab8756" opacity="1" data-original="#000000" class=""></path></g></svg>